<svg width="120" height="173" viewBox="0 0 120 173" fill="none" xmlns="http://www.w3.org/2000/svg">
<g filter="url(#filter0_i_150_2)">
<path d="M4.515 133L38.313 39.217H50.31L84.108 133H70.95L44.763 57.406L43.86 53.665L42.957 57.406L28.509 98.815L27.09 101.524L28.638 101.266H46.053C48.117 101.266 49.837 101.696 51.213 102.556C52.632 103.416 53.793 104.555 54.696 105.974C55.642 107.393 56.416 108.92 57.018 110.554H24.51L16.77 133H4.515Z" fill="#B7D7C5"/>
</g>
<g filter="url(#filter1_i_150_2)">
<path d="M77.638 133V48.505H50.29V39.217H117.499V48.505H90.022V133H77.638Z" fill="#D1C4E9"/>
</g>
<defs>
<filter id="filter0_i_150_2" x="4.51501" y="39.217" width="79.593" height="97.783" filterUnits="userSpaceOnUse" color-interpolation-filters="sRGB">
<feFlood flood-opacity="0" result="BackgroundImageFix"/>
<feBlend mode="normal" in="SourceGraphic" in2="BackgroundImageFix" result="shape"/>
<feColorMatrix in="SourceAlpha" type="matrix" values="0 0 0 0 0 0 0 0 0 0 0 0 0 0 0 0 0 0 127 0" result="hardAlpha"/>
<feOffset dy="4"/>
<feGaussianBlur stdDeviation="2"/>
<feComposite in2="hardAlpha" operator="arithmetic" k2="-1" k3="1"/>
<feColorMatrix type="matrix" values="0 0 0 0 0 0 0 0 0 0 0 0 0 0 0 0 0 0 0.25 0"/>
<feBlend mode="normal" in2="shape" result="effect1_innerShadow_150_2"/>
</filter>
<filter id="filter1_i_150_2" x="50.29" y="39.217" width="67.209" height="97.783" filterUnits="userSpaceOnUse" color-interpolation-filters="sRGB">
<feFlood flood-opacity="0" result="BackgroundImageFix"/>
<feBlend mode="normal" in="SourceGraphic" in2="BackgroundImageFix" result="shape"/>
<feColorMatrix in="SourceAlpha" type="matrix" values="0 0 0 0 0 0 0 0 0 0 0 0 0 0 0 0 0 0 127 0" result="hardAlpha"/>
<feOffset dy="4"/>
<feGaussianBlur stdDeviation="2"/>
<feComposite in2="hardAlpha" operator="arithmetic" k2="-1" k3="1"/>
<feColorMatrix type="matrix" values="0 0 0 0 0 0 0 0 0 0 0 0 0 0 0 0 0 0 0.25 0"/>
<feBlend mode="normal" in2="shape" result="effect1_innerShadow_150_2"/>
</filter>
</defs>
</svg>
